HIERARCHY
ROOT root
{
	OFFSET 0.000000 0.000000 0.000000
	CHANNELS 6 Xposition Yposition Zposition Zrotation Yrotation Xrotation
	JOINT lhip
	{
		OFFSET 0.058581 -0.082280 -0.017664
		CHANNELS 3 Zrotation Yrotation Xrotation
		JOINT lknee
		{
			OFFSET 0.043451 -0.386469 0.008037
			CHANNELS 3 Zrotation Yrotation Xrotation
			JOINT lankle
			{
				OFFSET -0.014790 -0.426874 -0.037428
				CHANNELS 3 Zrotation Yrotation Xrotation
				JOINT ltoe
				{
					OFFSET 0.041054 -0.060286 0.122042
					CHANNELS 3 Zrotation Yrotation Xrotation
					End Site
					{
						OFFSET 0.000000 0.000000 0.000000
					}
				}
			}
		}
	}
	JOINT rhip
	{
		OFFSET -0.060310 -0.090513 -0.013543
		CHANNELS 3 Zrotation Yrotation Xrotation
		JOINT rknee
		{
			OFFSET -0.043257 -0.383688 -0.004843
			CHANNELS 3 Zrotation Yrotation Xrotation
			JOINT rankle
			{
				OFFSET 0.019056 -0.420046 -0.034562
				CHANNELS 3 Zrotation Yrotation Xrotation
				JOINT rtoe
				{
					OFFSET -0.034840 -0.062106 0.130323
					CHANNELS 3 Zrotation Yrotation Xrotation
					End Site
					{
						OFFSET 0.000000 0.000000 0.000000
					}
				}
			}
		}
	}
	JOINT lowerback
	{
		OFFSET 0.004439 0.124404 -0.038385
		CHANNELS 3 Zrotation Yrotation Xrotation
		JOINT upperback
		{
			OFFSET 0.004488 0.137956 0.026820
			CHANNELS 3 Zrotation Yrotation Xrotation
			JOINT chest
			{
				OFFSET -0.002265 0.056032 0.002855
				CHANNELS 3 Zrotation Yrotation Xrotation
				JOINT lowerneck
				{
					OFFSET -0.013390 0.211636 -0.033468
					CHANNELS 3 Zrotation Yrotation Xrotation
					JOINT upperneck
					{
						OFFSET 0.010113 0.088937 0.050410
						CHANNELS 3 Zrotation Yrotation Xrotation
						End Site
						{
							OFFSET 0.000000 0.000000 0.000000
						}
					}
				}
				JOINT lclavicle
				{
					OFFSET 0.071702 0.114000 -0.018898
					CHANNELS 3 Zrotation Yrotation Xrotation
					JOINT lshoulder
					{
						OFFSET 0.122921 0.045205 -0.019046
						CHANNELS 3 Zrotation Yrotation Xrotation
						JOINT lelbow
						{
							OFFSET 0.255332 -0.015649 -0.022946
							CHANNELS 3 Zrotation Yrotation Xrotation
							JOINT lwrist
							{
								OFFSET 0.265709 0.012698 -0.007375
								CHANNELS 3 Zrotation Yrotation Xrotation
								End Site
								{
									OFFSET 0.000000 0.000000 0.000000
								}
							}
						}
					}
				}
				JOINT rclavicle
				{
					OFFSET -0.082954 0.112472 -0.023707
					CHANNELS 3 Zrotation Yrotation Xrotation
					JOINT rshoulder
					{
						OFFSET -0.113228 0.046853 -0.008472
						CHANNELS 3 Zrotation Yrotation Xrotation
						JOINT relbow
						{
							OFFSET -0.260127 -0.014369 -0.031269
							CHANNELS 3 Zrotation Yrotation Xrotation
							JOINT rwrist
							{
								OFFSET -0.269108 0.006794 -0.006027
								CHANNELS 3 Zrotation Yrotation Xrotation
								End Site
								{
									OFFSET 0.000000 0.000000 0.000000
								}
							}
						}
					}
				}
			}
		}
	}
}
MOTION
Frames: 5
Frame Time: 0.033333
1.285935 0.703979 1.001196 -84.801800 -0.375593 83.538290 -1.783184 -2.415502 1.554721 -1.708404 -10.490131 7.639727 3.130725 8.051511 -11.040198 0.000000 -0.000000 0.000000 1.914200 -4.392980 2.942128 -3.727913 -2.573224 8.510696 2.657077 -9.554132 -13.063599 0.000000 -0.000000 0.000000 1.002133 3.609093 9.913354 -2.811030 -0.102653 -2.341409 0.211430 1.601101 -0.903189 0.152771 27.615319 -8.327480 -2.561065 27.128529 -3.011768 -29.399495 -6.261821 0.936512 -50.644877 -5.800357 10.535264 -2.692574 -18.500715 13.085574 0.293445 -7.583295 0.666296 24.959833 5.902869 7.680041 59.204313 2.054981 18.831352 -3.878141 26.232530 13.477073 2.295208 4.286872 4.594367 
1.285632 0.703898 1.001196 -84.500032 -0.390492 83.634825 -1.857376 -2.670663 1.319616 -1.700592 -10.603859 7.899235 3.070738 8.046084 -11.107188 0.000000 -0.000000 0.000000 1.851758 -4.298478 2.888764 -3.577623 -2.779967 8.531678 2.560832 -9.687089 -13.124734 0.000000 -0.000000 0.000000 0.991053 3.606428 10.012386 -2.800872 -0.140820 -2.522023 0.138813 1.699205 -0.942844 0.213890 27.736509 -8.592666 -2.579149 27.065415 -2.850632 -29.457018 -6.024250 0.768957 -50.524817 -5.613284 10.649782 -2.489476 -18.485430 12.887447 0.309625 -7.593643 0.396164 24.987365 6.059911 7.572346 59.122789 1.948137 19.385705 -3.633208 26.350030 13.566450 1.711613 4.232902 3.636137 
1.285146 0.703749 1.000731 -84.166347 -0.231705 83.924650 -1.689498 -2.927114 0.870282 -1.754822 -10.597784 8.071444 3.101453 8.078892 -11.261809 0.000000 -0.000000 0.000000 2.049796 -4.234821 2.599205 -3.539392 -2.935044 8.590860 2.449670 -9.981683 -13.076524 0.000000 -0.000000 0.000000 1.199352 3.444151 9.710437 -2.781728 -0.061040 -2.670809 0.064944 1.691851 -0.805982 0.298559 27.710213 -8.559373 -2.611425 27.103868 -2.726589 -29.421620 -5.777678 0.589503 -50.604658 -5.549458 10.622492 -2.404290 -18.519310 12.924187 -0.094935 -7.381597 0.662598 24.845263 5.907964 7.511248 59.007235 2.174764 19.605109 -3.219260 26.370016 15.202177 3.432829 3.502012 4.677166 
1.284503 0.703834 1.000619 -84.044078 -0.235508 83.878808 -1.672386 -2.869837 0.955097 -1.768073 -10.712973 8.029227 2.941623 8.005086 -11.204570 0.000000 -0.000000 0.000000 2.123125 -4.182503 2.703294 -3.606291 -2.978777 8.578620 2.455113 -10.101812 -13.093118 0.000000 -0.000000 0.000000 1.240097 3.436117 10.021440 -2.880261 0.046925 -2.890952 0.071955 1.871564 -0.786037 0.139573 27.592553 -8.669724 -2.597543 27.037731 -2.796288 -29.380258 -5.771144 0.505701 -50.598142 -5.561506 10.477413 -2.305029 -18.313856 12.978949 0.395493 -7.562762 1.081212 24.780674 5.870636 7.276613 59.087987 2.025021 19.490027 -3.117375 26.481891 15.608123 3.197444 3.708246 5.039820 
1.283226 0.703701 1.000598 -83.769394 -0.173432 83.952420 -1.603185 -3.036995 0.917524 -1.793822 -10.790142 8.069490 2.964149 7.947244 -11.217499 0.000000 -0.000000 0.000000 2.139299 -4.375757 2.824507 -3.509093 -2.992134 8.355900 2.413101 -10.210402 -13.057815 0.000000 -0.000000 0.000000 1.150891 3.488694 9.675146 -2.745767 -0.086408 -2.655341 0.132211 1.886140 -0.838257 0.155380 27.554169 -8.511013 -2.553252 27.065155 -2.714638 -29.340299 -5.781330 0.686408 -50.632098 -5.646298 10.460004 -2.153275 -18.259119 12.875709 -0.011385 -7.948300 0.477778 24.737388 5.892189 7.413131 59.090908 1.890659 19.512460 -3.222568 26.546555 15.715443 3.374338 3.818609 4.963658 
